<?xml version="1.0" encoding="UTF-8" standalone="no"?>
<!DOCTYPE svg PUBLIC "-//W3C//DTD SVG 1.1//EN" "http://www.w3.org/Graphics/SVG/1.1/DTD/svg11.dtd">
<!-- 由 Microsoft Visio, SVG Export 生成 logo2.svg Page-1 -->
<svg xmlns="http://www.w3.org/2000/svg" xmlns:xlink="http://www.w3.org/1999/xlink" xmlns:ev="http://www.w3.org/2001/xml-events"
		width="11.6929in" height="8.26772in" viewBox="0 0 841.89 595.276" xml:space="preserve" color-interpolation-filters="sRGB"
		class="st8">
	<style type="text/css">
	<![CDATA[
		.st1 {fill:#538135;stroke:#c7c8c8;stroke-width:0.25}
		.st2 {fill:#4672c4;stroke:#c7c8c8;stroke-width:0.25}
		.st3 {fill:#ed7d31;stroke:#c7c8c8;stroke-width:0.25}
		.st4 {fill:#c55a11;stroke:#c7c8c8;stroke-width:0.25}
		.st5 {fill:none;stroke:none;stroke-width:0.25}
		.st6 {fill:#ffffff;font-family:Bahnschrift Light SemiCondensed;font-size:4.99999em}
		.st7 {fill:none;stroke:#feffff;stroke-dasharray:21,15;stroke-width:3}
		.st8 {fill:none;fill-rule:evenodd;font-size:12px;overflow:visible;stroke-linecap:square;stroke-miterlimit:3}
	]]>
	</style>

	<g>
		<title>页-1</title>
		<g id="shape2-1" transform="translate(311.811,-260.12)">
			<title>正方形.2</title>
			<rect x="0" y="481.89" width="113.386" height="113.386" class="st1"/>
		</g>
		<g id="shape3-3" transform="translate(425.197,-373.506)">
			<title>正方形.3</title>
			<rect x="0" y="481.89" width="113.386" height="113.386" class="st2"/>
		</g>
		<g id="shape4-5" transform="translate(425.197,-260.12)">
			<title>正方形.4</title>
			<rect x="0" y="481.89" width="113.386" height="113.386" class="st3"/>
		</g>
		<g id="group12-7" transform="translate(311.811,-373.506)">
			<title>工作表.12</title>
			<g id="shape9-8">
				<title>正方形</title>
				<rect x="0" y="481.89" width="113.386" height="113.386" class="st4"/>
			</g>
			<g id="group10-10" transform="translate(2.69291,-2.69329)">
				<title>齿轮</title>
				<g id="shape11-11">
					<title>工作表.11</title>
					<path d="M58.85 595.28 C55.62 595.28 52.38 595.28 49.15 595.28 C48.04 594.64 47.51 593.7 47.31 592.42 C46.71
								 588.4 45.99 584.39 45.37 580.37 C45.25 579.55 45.01 579.09 44.11 578.88 C40.64 578.05 37.39 576.65
								 34.33 574.82 C33.69 574.43 33.27 574.44 32.67 574.88 C29.27 577.37 25.84 579.82 22.41 582.27 C20.78
								 583.43 19.71 583.35 18.31 581.96 C16.7 580.34 15.08 578.73 13.46 577.12 C11.88 575.53 11.8 574.58
								 13.08 572.79 C15.52 569.4 17.94 566 20.4 562.62 C20.8 562.07 20.9 561.69 20.51 561.05 C18.6 557.91
								 17.23 554.54 16.34 550.98 C16.17 550.3 15.85 550.07 15.24 549.97 C11.25 549.34 7.27 548.64 3.28
								 548.05 C1.88 547.84 0.73 547.38 0 546.13 C0 542.89 0 539.66 0 536.42 C0.65 535.28 1.65 534.76 2.95
								 534.56 C6.94 533.96 10.92 533.25 14.91 532.65 C15.81 532.52 16.21 532.18 16.42 531.29 C17.25 527.86
								 18.65 524.64 20.46 521.61 C20.84 520.98 20.85 520.56 20.4 519.96 C17.89 516.53 15.42 513.07 12.95
								 509.61 C11.87 508.09 11.96 506.98 13.25 505.68 C14.93 503.98 16.62 502.29 18.32 500.6 C19.73 499.2
								 20.75 499.12 22.4 500.3 C25.85 502.78 29.31 505.25 32.76 507.74 C33.24 508.09 33.58 508.18 34.14
								 507.83 C37.31 505.91 40.71 504.5 44.31 503.62 C44.99 503.46 45.21 503.13 45.31 502.51 C45.94 498.53
								 46.64 494.55 47.23 490.56 C47.44 489.16 47.88 488 49.15 487.28 C52.38 487.28 55.62 487.28 58.85
								 487.28 C59.97 487.9 60.5 488.85 60.7 490.13 C61.31 494.15 62.03 498.16 62.64 502.19 C62.77 503.07
								 63.1 503.48 63.99 503.7 C67.46 504.55 70.71 505.96 73.76 507.79 C74.33 508.13 74.7 508.13 75.24
								 507.73 C78.68 505.23 82.14 502.76 85.59 500.29 C87.23 499.12 88.28 499.2 89.69 500.6 C91.3 502.21
								 92.92 503.83 94.53 505.44 C96.11 507.02 96.2 507.98 94.92 509.77 C92.47 513.19 90.02 516.62 87.54
								 520.03 C87.2 520.51 87.09 520.85 87.44 521.42 C89.37 524.59 90.78 527.99 91.66 531.59 C91.83 532.27
								 92.17 532.48 92.77 532.58 C96.76 533.21 100.73 533.91 104.73 534.5 C106.12 534.71 107.27 535.16
								 108 536.42 C108 539.59 108 542.75 108 545.92 C107.51 547.15 106.6 547.73 105.29 547.93 C101.16 548.56
								 97.05 549.28 92.92 549.94 C92.23 550.05 91.85 550.25 91.66 551.03 C90.77 554.59 89.36 557.96 87.45
								 561.1 C87.12 561.64 87.17 561.99 87.53 562.49 C90.07 565.98 92.58 569.5 95.09 573.01 C96.12 574.45
								 96.02 575.62 94.77 576.87 C93.09 578.56 91.4 580.25 89.7 581.94 C88.28 583.36 87.24 583.44 85.62
								 582.28 C82.16 579.8 78.7 577.34 75.27 574.83 C74.73 574.45 74.36 574.4 73.79 574.75 C70.65 576.67
								 67.27 578.05 63.71 578.94 C63.05 579.11 62.8 579.4 62.7 580.03 C62.06 584.05 61.36 588.07 60.75
								 592.1 C60.55 593.46 60.07 594.57 58.85 595.28 ZM83.05 541.28 A29.0536 29.054 -180 1 0 24.95 541.28
								 A29.0536 29.054 -180 1 0 83.05 541.28 Z" class="st2"/>
				</g>
			</g>
		</g>
		<g id="shape6-13" transform="translate(304.724,-319.053)">
			<title>工作表.6</title>
			<desc>SKDDX20</desc>
			<rect x="0" y="486.369" width="240.945" height="108.907" class="st5"/>
			<text x="13.47" y="558.82" class="st6">SKDDX20</text>		</g>
		<g id="shape13-16" transform="translate(439.37,-274.294)">
			<title>四角星</title>
			<path d="M42.52 510.24 L55.28 540 L85.04 552.76 L55.28 565.51 L42.52 595.28 L29.76 565.51 L0 552.76 L29.76 540 L42.52
						 510.24 Z" class="st2"/>
		</g>
		<g id="shape5-18" transform="translate(311.811,-260.12)">
			<title>圆形</title>
			<path d="M0 481.89 A113.386 113.386 0 0 1 226.77 481.89 A113.386 113.386 0 1 1 0 481.89 Z" class="st7"/>
		</g>
	</g>
</svg>
